<?xml version="1.0" encoding="UTF-8"?>
<svg id="Layer_2" xmlns="http://www.w3.org/2000/svg" version="1.1" viewBox="0 0 350 350">
  <!-- Generator: Adobe Illustrator 29.8.1, SVG Export Plug-In . SVG Version: 2.1.1 Build 2)  -->
  <defs>
    <style>
      .st0 {
        fill: #484de6;
      }

      .st1 {
        fill: #fdfeff;
      }
    </style>
  </defs>
  <g id="Layer_1-2">
    <g>
      <rect class="st0" width="350" height="350" rx="64" ry="64"/>
      <path class="st1" d="M123.8,205.5c-14.2-.2-23.3-.3-36.1-2.9-18.6-3.7-28.8-9.1-32.1-11-8.1-4.6-12.1-8.5-15-12.9-2.4-3.6-6.9-10.6-5.2-19.2,1.7-8.2,8.1-12.3,8.5-12.6,1.5-.9,4.3-2.3,8.4-2.4,9.8-.4,16.5,6.3,24.2,11.2,1,.6,19.3,11.9,40.1,10.2,18.9-1.6,27.3-3.9,27.3-3.9,1.9-.5,7.3-2.1,13.2,0,1.1.4,3.6,1.3,5.9,3.5,5.5,5.1,5.9,12.8,6,14.2.4,10.1-6.4,16.4-7.2,17.3-3.2,2.9-6.5,3.9-9.1,4.6-14.5,4-27.6,3.9-29,3.9h0Z"/>
      <g>
        <path class="st1" d="M228.8,291.4c-12.5,0-22.6-3-30.1-9-18.7-15-14.4-38.6-3-101.6,3.3-18.5,7.1-39,11-62.9,2.7-16.1,5.2-32.4,7.6-48.4.5-3.4,2.3-6.3,5.1-8.4,2.8-2,6.2-2.8,9.6-2.3,7,1,11.9,7.4,10.9,14.3-2.4,16.2-5,32.6-7.7,48.9-4.1,24.9-8,46.1-11.1,63.2-8.4,46.5-13.1,72.1-6.1,77.7,7,5.6,27.3,3.3,42.8-2.2,7.1-2.5,13.7-6.2,19.8-10.9,2.8-2.1,6.2-3.1,9.6-2.6,3.5.4,6.6,2.1,8.7,4.9,4.2,5.4,3.3,13.3-2.2,17.5-8.2,6.4-17.3,11.4-27,14.8-2.9,1-13.2,4.5-25.5,6.1-4.4.6-8.6.9-12.5.9h0Z"/>
        <path class="st1" d="M228.8,297.9c-14,0-25.5-3.5-34.2-10.5-21.8-17.4-16.9-43.9-5.3-107.9l.3-1.8c3.2-17.8,6.9-37.9,10.7-60.9,2.8-16.8,5.3-33.1,7.6-48.3.8-5.1,3.5-9.7,7.8-12.7,4.2-3,9.3-4.2,14.4-3.5,10.6,1.6,17.9,11.3,16.4,21.7-2.5,16.8-5.1,33.2-7.7,49-4.2,25.4-8.2,47.3-11.1,63.3-4,21.9-7.1,39.2-8.5,51.8-1.8,15.6-.2,19.1.2,19.7,3.6,2.7,19.4,2.7,36.4-3.3,6.4-2.3,12.5-5.6,17.9-9.8,4.2-3.2,9.3-4.6,14.5-4,5.2.6,9.8,3.2,13,7.3,3.1,4,4.5,9,3.9,14-.6,5.1-3.2,9.6-7.3,12.7-8.8,6.8-18.5,12.2-28.9,15.8-2.9,1-13.2,4.5-25.4,6.3l1.1,1.1h-15.8ZM227.6,284.8h1.2c3.6,0,7.5-.3,11.6-.8,11.6-1.6,21.4-4.9,24.2-5.8,9.1-3.2,17.5-7.8,25.2-13.8,1.3-1,2.1-2.4,2.3-4,.2-1.6-.2-3.1-1.2-4.3-1.1-1.4-2.5-2.2-4.3-2.4-1.8-.2-3.5.3-4.8,1.3-6.6,5.1-13.8,9.1-21.6,11.8-12.1,4.3-38,10-49.1,1.1-9.6-7.7-6.7-26.3,3.7-84,2.9-16,6.9-37.8,11.1-63.1,2.6-15.7,5.2-32.1,7.6-48.8.5-3.3-1.9-6.3-5.3-6.8-1.7-.3-3.4.1-4.8,1.1-1.4,1-2.2,2.4-2.5,4-2.3,15.3-4.8,31.7-7.6,48.5-3.8,23.1-7.5,43.3-10.7,61.1l-.3,1.8c-11.7,64.2-14.4,83.3.6,95.3,6.1,4.9,14.4,7.4,24.8,7.6Z"/>
      </g>
    </g>
  </g>
</svg>