<?xml version="1.0" encoding="UTF-8"?>
<svg id="Layer_2" data-name="Layer 2" xmlns="http://www.w3.org/2000/svg" viewBox="0 0 309.17 350">
  <defs>
    <style>
      .cls-1 {
        fill: #f15a24;
      }

      .cls-2 {
        fill: #484de6;
      }

      .cls-3 {
        fill: #fdfeff;
      }

      .cls-4 {
        fill: #6e7070;
      }

      .cls-5 {
        fill: #222;
      }
    </style>
  </defs>
  <g id="Layer_1-2" data-name="Layer 1">
    <g>
      <g>
        <ellipse class="cls-3" cx="154.58" cy="175" rx="139.14" ry="159.67"/>
        <path class="cls-2" d="M154.58,15.33c76.85,0,139.14,71.49,139.14,159.67s-62.3,159.67-139.14,159.67S15.44,263.18,15.44,175,77.74,15.33,154.58,15.33M154.58,0C69.35,0,0,78.5,0,175s69.35,175,154.58,175,154.58-78.5,154.58-175S239.82,0,154.58,0h0Z"/>
      </g>
      <g>
        <path class="cls-4" d="M147.12,242.78c-5.71,0-10.2-1.33-13.42-3.97-8.08-6.64-5.84-19.25.12-52.94,1.71-9.66,3.84-21.69,6.11-35.75,1.48-9.17,2.9-18.46,4.22-27.59.17-1.16,1.22-1.96,2.36-1.79,1.13.17,1.92,1.25,1.75,2.41-1.32,9.16-2.74,18.47-4.23,27.66-2.27,14.1-4.41,26.14-6.12,35.82-5.65,31.89-7.76,43.83-1.6,48.89,6.68,5.49,21.17,2.33,28.68-.4,4.44-1.61,8.6-3.95,12.37-6.96.9-.72,2.21-.56,2.91.37s.54,2.25-.36,2.98c-4.13,3.29-8.68,5.85-13.53,7.62-1.48.54-6.79,2.36-13.05,3.23-2.2.3-4.28.46-6.21.46Z"/>
        <path class="cls-2" d="M147.12,247.82c-6.92,0-12.52-1.72-16.66-5.12-10.35-8.51-7.98-21.9-1.64-57.7,1.72-9.7,3.83-21.68,6.1-35.68,1.48-9.15,2.89-18.4,4.2-27.51.28-1.92,1.29-3.61,2.85-4.75,1.54-1.13,3.42-1.61,5.31-1.31,3.87.58,6.56,4.22,6,8.11-1.32,9.18-2.75,18.52-4.24,27.74-2.25,13.93-4.36,25.86-6.06,35.49-4.75,26.8-7.32,41.34-3.44,44.53,4.04,3.31,15.22,1.82,23.7-1.25,3.91-1.42,7.59-3.49,10.94-6.16,1.51-1.2,3.39-1.75,5.31-1.51,1.9.23,3.66,1.23,4.82,2.75,2.36,3.09,1.8,7.56-1.22,9.96-4.56,3.63-9.6,6.47-14.97,8.42-2.07.75-7.57,2.58-14.1,3.48-2.41.34-4.73.5-6.9.5ZM180.54,232.07s0,0,0,0c0,0,0,0,0,0Z"/>
      </g>
      <path class="cls-1" d="M87,169.48c-4.62,0-9.28-.4-13.85-1.2-7.74-1.34-15.34-3.83-22.58-7.37-3.93-1.92-5.77-6.54-4.29-10.74.83-2.34,2.59-4.19,4.84-5.09,2.19-.88,4.67-.81,6.8.24,5.83,2.85,11.91,4.84,18.09,5.91,7.3,1.27,14.71,1.27,22.03,0,2.23-.38,4.56.18,6.38,1.52,1.89,1.39,3.14,3.54,3.43,5.91.58,4.6-2.48,8.83-6.95,9.62-4.6.8-9.27,1.2-13.89,1.2Z"/>
      <path class="cls-5" d="M210.41,191.66c-4.09-.51-7.4-1.47-9.68-2.25-5.13-2.13-10.38-5.64-14.05-11.62-.07-.12-.13-.21-.18-.29-1.11-1.85-6.1-10.54-5.77-19.1.35-9.08,5.09-15.61,7.02-18.15,6.84-9.02,20.2-17.67,36.21-15.4,0,0,20.22,2.86,29.8,23.28,1.42,3.04,4.04,8.62,2.15,14.68-.23.74-.85,2.52-2.15,4.26-2.95,3.98-8.14,6.12-18.2,7.02-4.07.36-29.65,2.38-32.9-5.92-.15-.39-1.4-3.58.08-5.52.78-1.03,2.05-1.36,3-1.51,7.07-1.13,19.14,4.34,29.11,2.66,1.11-.19,9.5-1.6,10.81-6.2,1.91-6.69-11.3-19.71-26.07-20.83-1.17-.09-16.25-1.14-23.92,9.55-3.53,4.92-3.92,10.12-3.97,11.95-.02.77-.17,10.35,6.68,16.54,7.17,6.49,18,5.61,24,5.13,7.65-.62,18.21-3.29,22.18-.45.4.28,1.5,1.07,1.73,2.37.35,2.02-1.69,3.87-2.35,4.42-4.2,1.57-7.83,2.58-10.55,3.24-6.5,1.58-13.89,3.3-22.96,2.17Z"/>
    </g>
  </g>
</svg>