<?xml version="1.0" encoding="UTF-8"?>
<svg id="Layer_2" data-name="Layer 2" xmlns="http://www.w3.org/2000/svg" viewBox="0 0 494.67 560">
  <defs>
    <style>
      .cls-1 {
        fill: #484de6;
      }

      .cls-2 {
        fill: #fdfeff;
      }

      .cls-3 {
        fill: #6e7070;
      }

      .cls-4 {
        fill: #fbb03b;
      }
    </style>
  </defs>
  <g id="Layer_1-2" data-name="Layer 1">
    <g>
      <g>
        <g>
          <ellipse class="cls-2" cx="247.33" cy="280" rx="222.63" ry="255.47"/>
          <path class="cls-1" d="M247.33,24.53c122.96,0,222.63,114.38,222.63,255.47s-99.68,255.47-222.63,255.47S24.7,421.09,24.7,280,124.38,24.53,247.33,24.53M247.33,0C110.95,0,0,125.61,0,280s110.95,280,247.33,280,247.33-125.61,247.33-280S383.71,0,247.33,0h0Z"/>
        </g>
        <g>
          <path class="cls-3" d="M235.39,388.45c-9.13,0-16.33-2.12-21.47-6.35-12.92-10.62-9.35-30.79.19-84.71,2.74-15.46,6.14-34.7,9.77-57.21,2.37-14.68,4.64-29.53,6.75-44.15.27-1.85,1.95-3.14,3.77-2.86,1.81.27,3.07,2,2.8,3.85-2.11,14.66-4.39,29.55-6.76,44.26-3.64,22.56-7.05,41.83-9.79,57.31-9.03,51.03-12.41,70.12-2.57,78.22,10.68,8.78,33.87,3.73,45.89-.65,7.1-2.58,13.76-6.33,19.8-11.14,1.45-1.15,3.53-.89,4.66.59,1.13,1.48.87,3.61-.57,4.76-6.6,5.26-13.89,9.36-21.65,12.18-2.37.86-10.87,3.78-20.88,5.16-3.53.49-6.84.73-9.93.73Z"/>
          <path class="cls-1" d="M235.39,396.51c-11.06,0-20.03-2.75-26.65-8.19-16.56-13.61-12.77-35.04-2.63-92.32,2.75-15.52,6.14-34.69,9.75-57.09,2.36-14.64,4.62-29.45,6.73-44.02.44-3.07,2.06-5.77,4.55-7.6,2.46-1.81,5.47-2.57,8.5-2.09,6.19.94,10.5,6.76,9.61,12.97-2.12,14.69-4.4,29.63-6.78,44.39-3.6,22.3-6.97,41.38-9.7,56.79-7.59,42.88-11.71,66.14-5.51,71.25,6.46,5.29,24.35,2.92,37.92-2,6.26-2.28,12.15-5.59,17.5-9.86,2.41-1.92,5.42-2.8,8.5-2.41,3.04.37,5.85,1.97,7.71,4.4,3.77,4.95,2.89,12.09-1.95,15.94-7.3,5.81-15.35,10.35-23.95,13.47-3.31,1.2-12.11,4.13-22.56,5.57-3.85.54-7.57.81-11.05.81ZM288.87,371.31s0,0-.01,0c0,0,0,0,.01,0Z"/>
        </g>
      </g>
      <path class="cls-4" d="M81.45,232.2c-4.39,5.53-3.68,12.54-3.58,13.48,1.39,12.09,15.04,18.52,18.21,20,5.79,2.71,9.76,2.91,34.62,2.56,25.54-.35,30.5-.68,37.44-3.85,5.02-2.29,15.52-7.08,17.18-16.41,1.46-8.2-4.74-15.24-5.04-15.57-8.14-8.98-19.86-4.75-50.57-4.84-29.3-.08-41.42-4-48.26,4.62Z"/>
      <path class="cls-4" d="M285.54,233.4c-4.39,5.53-3.68,12.54-3.58,13.48,1.39,12.09,15.04,18.52,18.21,20,5.79,2.71,9.76,2.91,34.62,2.56,25.54-.35,30.5-.68,37.44-3.85,5.02-2.29,15.52-7.08,17.18-16.41,1.46-8.2-4.74-15.24-5.04-15.57-8.14-8.98-19.86-4.75-50.57-4.84-29.3-.08-41.42-4-48.26,4.62Z"/>
    </g>
  </g>
</svg>