<?xml version="1.0" encoding="UTF-8"?>
<svg id="Layer_2" data-name="Layer 2" xmlns="http://www.w3.org/2000/svg" viewBox="0 0 1150 225">
  <defs>
    <style>
      .cls-1 {
        fill: #484de6;
      }

      .cls-2 {
        fill: #222;
      }
    </style>
  </defs>
  <g id="Layer_1-2" data-name="Layer 1">
    <g>
      <path class="cls-2" d="M49.14,152.58c2.7,18.62,18.58,31.04,38.95,31.04,13.48,0,22.17-5.03,30.27-15.37h50.94c-15.88,35.77-46.15,56.76-81.21,56.76C40.15,225,0,186.87,0,138.09S38.36,50,87.2,50s87.8,38.72,87.8,89.57c0,4.73-.3,8.57-1.2,13.01H49.14ZM125.26,119.47c-3.9-16.85-18.88-28.08-38.06-28.08-17.98,0-33.56,10.64-37.46,28.08h75.51Z"/>
      <path class="cls-2" d="M309.22,219.66v-17.81h-.58c-8.98,15.14-25.21,23.15-48.1,23.15-48.68,0-80.55-38.29-80.55-88.16s32.74-87.57,79.68-87.57c18.54,0,33.61,5.64,47.23,19.59V0h48.1v219.66h-45.78ZM309.51,136.54c0-22.86-17.09-41.26-40.85-41.26s-40.56,17.22-40.56,41.26,17.09,42.45,40.27,42.45,41.14-18.11,41.14-42.45Z"/>
      <path class="cls-2" d="M474.36,219.5v-18.02h-.58c-6.98,15.58-19.77,23.52-41.57,23.52-34.01,0-62.21-21.38-62.21-69.63V50h48.26v94.98c0,22.29,7.56,32.68,25.87,32.68s27.62-12.83,27.62-33.6V50h48.26v169.5h-45.64Z"/>
      <path class="cls-1" d="M636.56,225v-92.74c0-21.89-8.17-34.36-25.97-34.36s-27.14,11.25-27.14,32.23v94.87h-48.44V0h48.44v72.36c7-13.68,22.76-21.89,42.02-21.89,37.06,0,59.53,24.32,59.53,68.41v106.11h-48.44Z"/>
      <path class="cls-1" d="M971.56,225v-93.9c0-22.87-7.59-33.54-25.39-33.54-19.55,0-27.72,11.28-27.72,34.15v93.29h-48.44V55.79h45.23v17.99h.58c10.21-17.38,24.51-23.78,44.07-23.78,29.18,0,60.12,17.07,60.12,67.07v107.93h-48.44Z"/>
      <path class="cls-1" d="M1100.22,101.64c-.28-9.44-6.64-12.39-14.1-12.39s-13.27,4.72-13.27,10.92c0,8.85,7.47,13.28,28.76,19.18,36.5,10.33,48.4,25.97,48.4,49.87,0,34.23-27.65,55.77-62.5,55.77s-59.18-20.95-62.5-54.3h45.63c1.38,10.33,8.3,15.05,17.42,15.05,8.02,0,16.04-5.02,16.04-12.69,0-9.15-5.25-13.87-28.21-21.54-38.72-12.69-48.95-28.92-48.95-48.1,0-32.46,28.48-53.42,59.46-53.42,33.19,0,56.69,19.48,58.91,51.64h-45.08Z"/>
      <path class="cls-1" d="M739.14,152.58c2.7,18.62,18.58,31.04,38.95,31.04,13.48,0,22.17-5.03,30.27-15.37h50.94c-15.88,35.77-46.15,56.76-81.21,56.76-47.94,0-88.1-38.13-88.1-86.91s38.36-88.09,87.2-88.09,87.8,38.72,87.8,89.57c0,4.73-.3,8.57-1.2,13.01h-124.66ZM815.26,119.47c-3.9-16.85-18.88-28.08-38.06-28.08-17.98,0-33.56,10.64-37.46,28.08h75.51Z"/>
    </g>
  </g>
</svg>